#!OML:ASF H:\Dans Jumps\Project 1\Capture day 1\Session 1\subject.ASF
:FULLY-SPECIFIED
:DEGREES
367
root 0.0267222 17.7768 9.47456 11.9953 3.38169 -1.05008
lowerback 2.19535 0.996923 -0.970965
upperback 2.46555 1.30624 1.32117
thorax 1.24405 0.626799 1.88398
lowerneck -11.5241 -2.01042 -1.70296
upperneck 28.8989 -2.93541 1.72471
head 11.32 -1.28251 0.548882
rclavicle -1.56046e-014 -1.59028e-014
rhumerus -18.7712 -13.5077 -85.7383
rradius 23.7463
rwrist 45.7332
rhand -18.6771 -26.0439
rfingers 7.12502
rthumb 7.61683 -55.8867
lclavicle -1.56046e-014 -1.59028e-014
lhumerus -34.1483 4.1146 84.9709
lradius 11.5496
lwrist -2.98279
lhand -26.5569 -10.2617
lfingers 7.12502
lthumb 0.00785475 19.718
rfemur -21.3413 -2.50069 20.1017
rtibia 22.4666
rfoot -11.398 -2.1076
rtoes 15.082
lfemur -21.961 7.71505 -18.863
ltibia 20.7459
lfoot -8.04691 -0.717715
ltoes 0.942089
368
root 0.0303078 17.7794 9.50062 12.0474 3.48859 -1.02606
lowerback 2.0946 0.963805 -0.882385
upperback 2.41573 1.26367 1.33492
thorax 1.25251 0.607007 1.85018
lowerneck -11.574 -2.02185 -1.72071
upperneck 28.881 -2.94074 1.70427
head 11.3233 -1.289 0.543245
rclavicle 2.08724e-014 2.14687e-014
rhumerus -19.1459 -13.9587 -85.586
rradius 23.3353
rwrist 46.2643
rhand -18.6318 -26.0103
rfingers 7.12502
rthumb 7.66057 -55.8515
lclavicle 2.08724e-014 2.14687e-014
lhumerus -34.2138 4.02914 85.0979
lradius 11.6782
lwrist -2.64168
lhand -26.6489 -10.4115
lfingers 7.12502
lthumb -0.0810022 19.5682
rfemur -21.1878 -2.51247 20.0557
rtibia 22.292
rfoot -11.4447 -2.14546
rtoes 15.1446
lfemur -21.9081 7.70282 -18.8873
ltibia 20.6893
lfoot -8.10425 -0.83436
ltoes 0.990538
369
root 0.0339405 17.7815 9.52528 12.0847 3.58701 -1.01773
lowerback 2.01232 0.936577 -0.784644
upperback 2.36751 1.22877 1.35398
thorax 1.25197 0.591174 1.81619
lowerneck -11.6148 -2.03827 -1.73916
upperneck 28.846 -2.95166 1.68009
head 11.3182 -1.2987 0.535712
rclavicle -1.19271e-014 -5.96354e-015
rhumerus -19.5282 -14.3794 -85.4167
rradius 22.9777
rwrist 46.7632
rhand -18.6092 -25.9778
rfingers 7.12502
rthumb 7.6824 -55.8182
lclavicle -1.19271e-014 -5.96354e-015
lhumerus -34.2527 3.99612 85.2068
lradius 11.7944
lwrist -2.38911
lhand -26.7475 -10.5435
lfingers 7.12502
lthumb -0.176197 19.4361
rfemur -21.0219 -2.52742 20.0247
rtibia 22.1076
rfoot -11.4808 -2.15667
rtoes 15.2614
lfemur -21.8401 7.6542 -18.8878
ltibia 20.6336
lfoot -8.1636 -0.891262
ltoes 0.971984
370
root 0.0375931 17.7832 9.5486 12.1064 3.67289 -1.03213
lowerback 1.94657 0.915912 -0.668803
upperback 2.32291 1.20256 1.3778
thorax 1.24577 0.579898 1.77655
lowerneck -11.6531 -2.05796 -1.7518
upperneck 28.7972 -2.96582 1.64713
head 11.3071 -1.3104 0.523557
rclavicle -2.38542e-015 -3.97569e-016
rhumerus -19.9091 -14.8223 -85.2255
rradius 22.6584
rwrist 47.2773
rhand -18.5971 -25.9098
rfingers 7.12502
rthumb 7.69406 -55.7498
lclavicle -2.38542e-015 -3.97569e-016
lhumerus -34.261 4.00924 85.3003
lradius 11.9041
lwrist -2.17499
lhand -26.8334 -10.5801
lfingers 7.12502
lthumb -0.259214 19.3995
rfemur -20.8411 -2.55275 20.0188
rtibia 21.9124
rfoot -11.5085 -2.13333
rtoes 15.4306
lfemur -21.7577 7.58758 -18.8599
ltibia 20.5821
lfoot -8.22771 -0.900432
ltoes 0.925464
371
root 0.041543 17.7843 9.57129 12.1159 3.74235 -1.07463
lowerback 1.88514 0.902729 -0.529238
upperback 2.28096 1.18633 1.40824
thorax 1.23978 0.573842 1.73023
lowerneck -11.6679 -2.07832 -1.76154
upperneck 28.7229 -2.97964 1.60803
head 11.2813 -1.32269 0.508957
rclavicle 1.21259e-014 9.14409e-015
rhumerus -20.2939 -15.2392 -85.0205
rradius 22.3801
rwrist 47.7464
rhand -18.603 -25.8576
rfingers 7.12502
rthumb 7.68837 -55.6978
lclavicle 1.21259e-014 9.14409e-015
lhumerus -34.2485 4.03249 85.399
lradius 12.0051
lwrist -1.94034
lhand -26.9442 -10.6479
lfingers 7.12502
lthumb -0.366212 19.3316
rfemur -20.6464 -2.59434 20.0444
rtibia 21.7068
rfoot -11.5332 -2.06959
rtoes 15.6453
lfemur -21.6638 7.50577 -18.7997
ltibia 20.5365
lfoot -8.2972 -0.859581
ltoes 0.862397
372
root 0.0453154 17.785 9.59306 12.1185 3.7854 -1.13588
lowerback 1.82814 0.898241 -0.384591
upperback 2.23888 1.18155 1.44425
thorax 1.23077 0.573509 1.68659
lowerneck -11.6688 -2.09525 -1.77041
upperneck 28.6354 -2.98707 1.56325
head 11.2474 -1.33287 0.49315
rclavicle -3.47873e-015 -4.37326e-015
rhumerus -20.6716 -15.6256 -84.8051
rradius 22.1343
rwrist 48.1527
rhand -18.6117 -25.8348
rfingers 7.12502
rthumb 7.67998 -55.6753
lclavicle -3.47873e-015 -4.37326e-015
lhumerus -34.2074 4.08488 85.4936
lradius 12.1004
lwrist -1.65249
lhand -26.9903 -10.6324
lfingers 7.12502
lthumb -0.410755 19.347
rfemur -20.4477 -2.62981 20.0903
rtibia 21.4924
rfoot -11.5507 -1.98121
rtoes 15.9124
lfemur -21.5623 7.42104 -18.7183
ltibia 20.4916
lfoot -8.3675 -0.774366
ltoes 0.775561
373
root 0.0489074 17.7854 9.61403 12.1177 3.80267 -1.20715
lowerback 1.7708 0.900917 -0.243947
upperback 2.19768 1.18613 1.48311
thorax 1.22245 0.577713 1.64806
lowerneck -11.6558 -2.10772 -1.78128
upperneck 28.5325 -2.98769 1.51864
head 11.2047 -1.34035 0.478829
rclavicle -1.63003e-014 -1.23246e-014
rhumerus -21.0379 -15.9752 -84.5847
rradius 21.9164
rwrist 48.4947
rhand -18.6185 -25.8527
rfingers 7.12502
rthumb 7.67337 -55.6935
lclavicle -1.63003e-014 -1.23246e-014
lhumerus -34.1366 4.14973 85.5913
lradius 12.1941
lwrist -1.28748
lhand -26.9574 -10.5598
lfingers 7.12502
lthumb -0.378962 19.4196
rfemur -20.2508 -2.66335 20.149
rtibia 21.2744
rfoot -11.5638 -1.87426
rtoes 16.2019
lfemur -21.4524 7.33978 -18.6269
ltibia 20.4388
lfoot -8.43369 -0.65678
ltoes 0.685671
374
root 0.0525037 17.7856 9.63474 12.1128 3.79536 -1.28325
lowerback 1.70685 0.909838 -0.108686
upperback 2.15828 1.1988 1.52099
thorax 1.21939 0.585817 1.61164
lowerneck -11.6234 -2.11537 -1.79837
upperneck 28.4168 -2.98329 1.48509
head 11.1536 -1.34508 0.470519
rclavicle 1.17283e-014 3.97569e-015
rhumerus -21.3861 -16.2777 -84.3663
rradius 21.7182
rwrist 48.7539
rhand -18.6235 -25.9118
rfingers 7.12502
rthumb 7.66858 -55.7528
lclavicle 1.17283e-014 3.97569e-015
lhumerus -34.0473 4.18948 85.7078
lradius 12.3073
lwrist -0.805961
lhand -26.8353 -10.3981
lfingers 7.12502
lthumb -0.260972 19.5814
rfemur -20.0568 -2.70075 20.215
rtibia 21.0611
rfoot -11.579 -1.7472
rtoes 16.4751
lfemur -21.3255 7.27435 -18.534
ltibia 20.3679
lfoot -8.4953 -0.522187
ltoes 0.589231
375
root 0.0560193 17.786 9.65521 12.1065 3.76718 -1.35449
lowerback 1.6284 0.921404 0.0104379
upperback 2.12766 1.21452 1.5562
thorax 1.23318 0.595109 1.5819
lowerneck -11.6257 -2.11538 -1.79983
upperneck 28.3254 -2.96808 1.43846
head 11.118 -1.34448 0.455801
rclavicle -3.08116e-015 1.59028e-014
rhumerus -21.6993 -16.5304 -84.158
rradius 21.541
rwrist 48.933
rhand -18.6372 -26.0012
rfingers 7.12502
rthumb 7.65531 -55.8426
lclavicle -3.08116e-015 1.59028e-014
lhumerus -33.9274 4.20397 85.8439
lradius 12.4383
lwrist -0.242588
lhand -26.6331 -10.1389
lfingers 7.12502
lthumb -0.0656836 19.8409
rfemur -19.8705 -2.74608 20.2805
rtibia 20.8574
rfoot -11.595 -1.61254
rtoes 16.6772
lfemur -21.184 7.23556 -18.4518
ltibia 20.2767
lfoot -8.55381 -0.389638
ltoes 0.495411
